# xmcd
#
# Track frame offsets:
#	150
#	29587
#	44557
#	60365
#	88882
#	122627
#	139980
#
# Disc length: 2363 seconds
#
# Revision: 1
# Processed by: cddbd v1.5.2PL0 Copyright (c) Steve Scherf et al.
# Submitted via: audiograbber 1.83.01
#
DISCID=63093907
DTITLE=Saracen - Saracen, Heroes, Saints and Fools
DYEAR=1992
DGENRE=Blues
TTITLE0=Crusader
TTITLE1=Rock of Ages
TTITLE2=No More Lonely Nights
TTITLE3=Horsemen of the Apocalypse
TTITLE4=Heroes, Saints, and Fools
TTITLE5=Dolphin Ride
TTITLE6=Ready to Fly
EXTD=
EXTT0=
EXTT1=
EXTT2=
EXTT3=
EXTT4=
EXTT5=
EXTT6=
PLAYORDER=
